{"title":"Kyaa Super Kool Hain Hum 2012 Hindi DvDrip 720p Hi10P x264...Hon","uid":7646317,"size":2529604135,"categoryP":"video","categoryS":"hd___movies","magnet":"?xt=urn:btih:b81c29968636c586a963cda039cd1338a6411772&amp;dn=Kyaa+Super+Kool+Hain+Hum+2012+Hindi+DvDrip+720p+Hi10P+x264...Hon&amp;tr=udp%3A%2F%2Ftracker.openbittorrent.com%3A80&amp;tr=udp%3A%2F%2Fopen.demonii.com%3A1337&amp;tr=udp%3A%2F%2Ftracker.coppersurfer.tk%3A6969&amp;tr=udp%3A%2F%2Fexodus.desync.com%3A6969","seeders":0,"leechers":1,"uploader":"honey8ee","files":-1,"time":1347913358,"description":"What is Hi10P ?\n\nHi10P is the advanced version of the normal x264. This gives more quality for the same size. \nYou have the ability to watch Ultra Quality movies with the new Hi10P encodes.\n\nHi10P needs Updated, Advanced video players. \n\ni recommend VLC or Media Player Classic because it's pretty easy.\nBut, you can select any of your choice.(if problem to play then intsall k-lite codecs pack)\n\n\n &lt;a href=&quot;\nhttp://en.wikipedia.org/wiki/Kyaa_Super_Kool_Hain_Hum&quot; rel=&quot;nofollow&quot; target=&quot;_NEW&quot;&gt;\nhttp://en.wikipedia.org/wiki/Kyaa_Super_Kool_Hain_Hum&lt;/a&gt;\n &lt;a href=&quot;\nhttp://www.imdb.com/title/tt2027138/&quot; rel=&quot;nofollow&quot; target=&quot;_NEW&quot;&gt;\nhttp://www.imdb.com/title/tt2027138/&lt;/a&gt;\n\n\nFormat                                   : Matroska\nFormat version                           : Version 2\nFile size                                : 2.33 GiB\nDuration                                 : 2h 16mn\nOverall bit rate                         : 2 449 Kbps\n\n\nVideo\nID                                       : 1\nFormat                                   : AVC\nFormat/Info                              : Advanced Video Codec\nFormat profile                           : High &lt;a class=&quot;__cf_email__&quot; href=&quot;/cdn-cgi/l/email-protection&quot; data-cfemail=&quot;dcedec9c90e8f2ed&quot;&gt;[email&amp;#160;protected]&lt;/a&gt;&lt;script cf-hash='f9e31' type=&quot;text/javascript&quot;&gt;\n/* &lt;![CDATA[ */!function(){try{var t=&quot;currentScript&quot;in document?document.currentScript:function(){for(var t=document.getElementsByTagName(&quot;script&quot;),e=t.length;e--;)if(t[e].getAttribute(&quot;cf-hash&quot;))return t[e]}();if(t&amp;&amp;t.previousSibling){var e,r,n,i,c=t.previousSibling,a=c.getAttribute(&quot;data-cfemail&quot;);if(a){for(e=&quot;&quot;,r=parseInt(a.substr(0,2),16),n=2;a.length-n;n+=2)i=parseInt(a.substr(n,2),16)^r,e+=String.fromCharCode(i);e=document.createTextNode(e),c.parentNode.replaceChild(e,c)}}}catch(u){}}();/* ]]&gt; */&lt;/script&gt;\nFormat settings, CABAC                   : Yes\nFormat settings, ReFrames                : 4 frames\nMuxing mode                              : Header stripping\nCodec ID                                 : V_MPEG4/ISO/AVC\nDuration                                 : 2h 16mn\nBit rate                                 : 2 000 Kbps\nWidth                                    : 1 280 pixels\nHeight                                   : 544 pixels\nDisplay aspect ratio                     : 2.35:1\nFrame rate                               : 23.976 fps\nColor space                              : YUV\nChroma subsampling                       : 4:2:0\nBit depth                                : 10 bits\nStream size                              : 1.86 GiB (80%)\nSource                                   : DVD9\n\nAudio\nID                                       : 2\nFormat                                   : AC-3\nBit rate mode                            : Constant\nBit rate                                 : 448 Kbps\nChannel(s)                               : 6 channels\nChannel positions                        : Front: L C R, Side: L R, LFE\nSampling rate                            : 48.0 KHz\nBit depth                                : 16 bits\nCompression mode                         : Lossy\nStream size                              : 437 MiB (18%)\nLanguage                                 : Hindi\n\n\n &lt;a href=&quot;\nhttp://www.shotpix.com/images/57878633301039108269.png&quot; rel=&quot;nofollow&quot; target=&quot;_NEW&quot;&gt;\nhttp://www.shotpix.com/images/57878633301039108269.png&lt;/a&gt;\n &lt;a href=&quot;\nhttp://www.shotpix.com/images/93547334346014773759.png&quot; rel=&quot;nofollow&quot; target=&quot;_NEW&quot;&gt;\nhttp://www.shotpix.com/images/93547334346014773759.png&lt;/a&gt;\n &lt;a href=&quot;\nhttp://www.shotpix.com/images/61283286434585065466.png&quot; rel=&quot;nofollow&quot; target=&quot;_NEW&quot;&gt;\nhttp://www.shotpix.com/images/61283286434585065466.png&lt;/a&gt;\n &lt;a href=&quot;\nhttp://www.shotpix.com/images/31419027728118914268.png&quot; rel=&quot;nofollow&quot; target=&quot;_NEW&quot;&gt;\nhttp://www.shotpix.com/images/31419027728118914268.png&lt;/a&gt;\n &lt;a href=&quot;\nhttp://www.shotpix.com/images/75121037376548605050.png&quot; rel=&quot;nofollow&quot; target=&quot;_NEW&quot;&gt;\nhttp://www.shotpix.com/images/75121037376548605050.png&lt;/a&gt;\n &lt;a href=&quot;\nhttp://www.shotpix.com/images/86287915949496405782.png&quot; rel=&quot;nofollow&quot; target=&quot;_NEW&quot;&gt;\nhttp://www.shotpix.com/images/86287915949496405782.png&lt;/a&gt;\n &lt;a href=&quot;\nhttp://www.shotpix.com/images/19147043746952130395.png&quot; rel=&quot;nofollow&quot; target=&quot;_NEW&quot;&gt;\nhttp://www.shotpix.com/images/19147043746952130395.png&lt;/a&gt;\n &lt;a href=&quot;\nhttp://www.shotpix.com/images/57965102958000748457.png&quot; rel=&quot;nofollow&quot; target=&quot;_NEW&quot;&gt;\nhttp://www.shotpix.com/images/57965102958000748457.png&lt;/a&gt;\n &lt;a href=&quot;\nhttp://www.shotpix.com/images/12412439261472484514.png&quot; rel=&quot;nofollow&quot; target=&quot;_NEW&quot;&gt;\nhttp://www.shotpix.com/images/12412439261472484514.png&lt;/a&gt;\n\n                            \n                                 Check the sample First","torrent":{"xt":"urn:btih:b81c29968636c586a963cda039cd1338a6411772","amp;dn":"Kyaa+Super+Kool+Hain+Hum+2012+Hindi+DvDrip+720p+Hi10P+x264...Hon","amp;tr":["udp%3A%2F%2Ftracker.openbittorrent.com%3A80","udp%3A%2F%2Fopen.demonii.com%3A1337","udp%3A%2F%2Ftracker.coppersurfer.tk%3A6969","udp%3A%2F%2Fexodus.desync.com%3A6969"],"infoHash":"b81c29968636c586a963cda039cd1338a6411772","infoHashBuffer":{"type":"Buffer","data":[184,28,41,150,134,54,197,134,169,99,205,160,57,205,19,56,166,65,23,114]},"announce":[],"urlList":[]}}